<svg xmlns="http://www.w3.org/2000/svg" xmlns:xlink="http://www.w3.org/1999/xlink" width="1280" zoomAndPan="magnify" viewBox="0 0 960 599.999999" height="800" preserveAspectRatio="xMidYMid meet" version="1.0"><defs><clipPath id="6e2597b417"><path d="M 210 172.082031 L 390 172.082031 L 390 352.082031 L 210 352.082031 Z M 210 172.082031 " clip-rule="nonzero"/></clipPath><clipPath id="3e4018ceee"><path d="M 300 172.082031 C 250.292969 172.082031 210 212.378906 210 262.082031 C 210 311.789062 250.292969 352.082031 300 352.082031 C 349.707031 352.082031 390 311.789062 390 262.082031 C 390 212.378906 349.707031 172.082031 300 172.082031 Z M 300 172.082031 " clip-rule="nonzero"/></clipPath><clipPath id="0e696abedf"><path d="M 0 0.0820312 L 180 0.0820312 L 180 180.082031 L 0 180.082031 Z M 0 0.0820312 " clip-rule="nonzero"/></clipPath><clipPath id="1477dfd9fb"><path d="M 90 0.0820312 C 40.292969 0.0820312 0 40.378906 0 90.082031 C 0 139.789062 40.292969 180.082031 90 180.082031 C 139.707031 180.082031 180 139.789062 180 90.082031 C 180 40.378906 139.707031 0.0820312 90 0.0820312 Z M 90 0.0820312 " clip-rule="nonzero"/></clipPath><clipPath id="6ef030fa94"><rect x="0" width="180" y="0" height="181"/></clipPath><clipPath id="aebf6e0e25"><path d="M 570 172.082031 L 750 172.082031 L 750 352.082031 L 570 352.082031 Z M 570 172.082031 " clip-rule="nonzero"/></clipPath><clipPath id="ceebc2554f"><path d="M 660 172.082031 C 610.292969 172.082031 570 212.378906 570 262.082031 C 570 311.789062 610.292969 352.082031 660 352.082031 C 709.707031 352.082031 750 311.789062 750 262.082031 C 750 212.378906 709.707031 172.082031 660 172.082031 Z M 660 172.082031 " clip-rule="nonzero"/></clipPath><clipPath id="4795238388"><path d="M 0 0.0820312 L 180 0.0820312 L 180 180.082031 L 0 180.082031 Z M 0 0.0820312 " clip-rule="nonzero"/></clipPath><clipPath id="89c1106a6f"><path d="M 90 0.0820312 C 40.292969 0.0820312 0 40.378906 0 90.082031 C 0 139.789062 40.292969 180.082031 90 180.082031 C 139.707031 180.082031 180 139.789062 180 90.082031 C 180 40.378906 139.707031 0.0820312 90 0.0820312 Z M 90 0.0820312 " clip-rule="nonzero"/></clipPath><clipPath id="d105be39b0"><rect x="0" width="180" y="0" height="181"/></clipPath><clipPath id="366b77cce0"><path d="M 375.222656 360 L 558.777344 360 L 558.777344 543.554688 L 375.222656 543.554688 Z M 375.222656 360 " clip-rule="nonzero"/></clipPath><clipPath id="ebee7de46a"><path d="M 467 360 C 416.3125 360 375.222656 401.089844 375.222656 451.777344 C 375.222656 502.464844 416.3125 543.554688 467 543.554688 C 517.683594 543.554688 558.777344 502.464844 558.777344 451.777344 C 558.777344 401.089844 517.683594 360 467 360 Z M 467 360 " clip-rule="nonzero"/></clipPath><clipPath id="0ae5135d6e"><path d="M 0.222656 0 L 183.777344 0 L 183.777344 183.554688 L 0.222656 183.554688 Z M 0.222656 0 " clip-rule="nonzero"/></clipPath><clipPath id="31fcf2621f"><path d="M 92 0 C 41.3125 0 0.222656 41.089844 0.222656 91.777344 C 0.222656 142.464844 41.3125 183.554688 92 183.554688 C 142.683594 183.554688 183.777344 142.464844 183.777344 91.777344 C 183.777344 41.089844 142.683594 0 92 0 Z M 92 0 " clip-rule="nonzero"/></clipPath><clipPath id="4a5c1dc034"><rect x="0" width="184" y="0" height="184"/></clipPath><clipPath id="aff8f9418c"><path d="M 377 361.777344 L 557 361.777344 L 557 541.777344 L 377 541.777344 Z M 377 361.777344 " clip-rule="nonzero"/></clipPath><clipPath id="de5b1b66dd"><path d="M 467 361.777344 C 417.292969 361.777344 377 402.070312 377 451.777344 C 377 501.484375 417.292969 541.777344 467 541.777344 C 516.703125 541.777344 557 501.484375 557 451.777344 C 557 402.070312 516.703125 361.777344 467 361.777344 Z M 467 361.777344 " clip-rule="nonzero"/></clipPath><clipPath id="8aeac1260f"><path d="M 0 0.777344 L 180 0.777344 L 180 180.777344 L 0 180.777344 Z M 0 0.777344 " clip-rule="nonzero"/></clipPath><clipPath id="6801d0270c"><path d="M 90 0.777344 C 40.292969 0.777344 0 41.070312 0 90.777344 C 0 140.484375 40.292969 180.777344 90 180.777344 C 139.703125 180.777344 180 140.484375 180 90.777344 C 180 41.070312 139.703125 0.777344 90 0.777344 Z M 90 0.777344 " clip-rule="nonzero"/></clipPath><clipPath id="ef3dddd8a7"><rect x="0" width="180" y="0" height="181"/></clipPath><clipPath id="2c34d81ed4"><path d="M 390 12.363281 L 570 12.363281 L 570 192.363281 L 390 192.363281 Z M 390 12.363281 " clip-rule="nonzero"/></clipPath><clipPath id="1dbb29f224"><path d="M 480 12.363281 C 430.292969 12.363281 390 52.65625 390 102.363281 C 390 152.066406 430.292969 192.363281 480 192.363281 C 529.707031 192.363281 570 152.066406 570 102.363281 C 570 52.65625 529.707031 12.363281 480 12.363281 Z M 480 12.363281 " clip-rule="nonzero"/></clipPath><clipPath id="c9b47c0590"><path d="M 0 0.363281 L 180 0.363281 L 180 180.363281 L 0 180.363281 Z M 0 0.363281 " clip-rule="nonzero"/></clipPath><clipPath id="cd2ed6b7e7"><path d="M 90 0.363281 C 40.292969 0.363281 0 40.65625 0 90.363281 C 0 140.066406 40.292969 180.363281 90 180.363281 C 139.707031 180.363281 180 140.066406 180 90.363281 C 180 40.65625 139.707031 0.363281 90 0.363281 Z M 90 0.363281 " clip-rule="nonzero"/></clipPath><clipPath id="b9604e0a50"><rect x="0" width="180" y="0" height="181"/></clipPath></defs><rect x="-96" width="1152" fill="#ffffff" y="-60" height="719.999999" fill-opacity="1"/><rect x="-96" width="1152" fill="#0f0f0f" y="-60" height="719.999999" fill-opacity="1"/><g clip-path="url(#6e2597b417)"><g clip-path="url(#3e4018ceee)"><g transform="matrix(1, 0, 0, 1, 210, 172)"><g clip-path="url(#6ef030fa94)"><g clip-path="url(#0e696abedf)"><g clip-path="url(#1477dfd9fb)"><path fill="#ffffff" d="M 0 0.0820312 L 180 0.0820312 L 180 180.082031 L 0 180.082031 Z M 0 0.0820312 " fill-opacity="1" fill-rule="nonzero"/></g></g></g></g></g></g><g clip-path="url(#aebf6e0e25)"><g clip-path="url(#ceebc2554f)"><g transform="matrix(1, 0, 0, 1, 570, 172)"><g clip-path="url(#d105be39b0)"><g clip-path="url(#4795238388)"><g clip-path="url(#89c1106a6f)"><path fill="#5d119b" d="M 0 0.0820312 L 180 0.0820312 L 180 180.082031 L 0 180.082031 Z M 0 0.0820312 " fill-opacity="1" fill-rule="nonzero"/></g></g></g></g></g></g><g clip-path="url(#366b77cce0)"><g clip-path="url(#ebee7de46a)"><g transform="matrix(1, 0, 0, 1, 375, 360)"><g clip-path="url(#4a5c1dc034)"><g clip-path="url(#0ae5135d6e)"><g clip-path="url(#31fcf2621f)"><path fill="#ffffff" d="M 0.222656 0 L 183.777344 0 L 183.777344 183.554688 L 0.222656 183.554688 Z M 0.222656 0 " fill-opacity="1" fill-rule="nonzero"/></g></g></g></g></g></g><g clip-path="url(#aff8f9418c)"><g clip-path="url(#de5b1b66dd)"><g transform="matrix(1, 0, 0, 1, 377, 361)"><g clip-path="url(#ef3dddd8a7)"><g clip-path="url(#8aeac1260f)"><g clip-path="url(#6801d0270c)"><path fill="#000000" d="M 0 0.777344 L 180 0.777344 L 180 180.777344 L 0 180.777344 Z M 0 0.777344 " fill-opacity="1" fill-rule="nonzero"/></g></g></g></g></g></g><g clip-path="url(#2c34d81ed4)"><g clip-path="url(#1dbb29f224)"><g transform="matrix(1, 0, 0, 1, 390, 12)"><g clip-path="url(#b9604e0a50)"><g clip-path="url(#c9b47c0590)"><g clip-path="url(#cd2ed6b7e7)"><path fill="#deab0b" d="M 0 0.363281 L 180 0.363281 L 180 180.363281 L 0 180.363281 Z M 0 0.363281 " fill-opacity="1" fill-rule="nonzero"/></g></g></g></g></g></g></svg>